<?xml version="1.0" encoding="utf-8"?>
<!-- Generator: Adobe Illustrator 26.0.1, SVG Export Plug-In . SVG Version: 6.00 Build 0)  -->
<svg version="1.1" id="Layer_1" xmlns="http://www.w3.org/2000/svg" xmlns:xlink="http://www.w3.org/1999/xlink" x="0px" y="0px"
	 viewBox="0 0 300 300" style="enable-background:new 0 0 300 300;" xml:space="preserve">
<path d="M45.74072,141.11279c-2.43359,0-4.77539-0.3335-7.02539-1s-4.2085-1.6665-5.875-3l4.1001-5.9502
	c0.8999,0.80029,2.08301,1.50879,3.55029,2.125c1.46631,0.61719,2.93262,0.92529,4.3999,0.92529
	c0.56641,0,1.07471-0.06641,1.5249-0.2002c0.4502-0.13281,0.6748-0.36621,0.6748-0.69971c0-0.2666-0.125-0.4668-0.375-0.6001
	c-0.25-0.13281-0.79199-0.2666-1.625-0.3999l-1.7998-0.3501c-3.63379-0.7002-6.2002-1.7002-7.7002-3
	c-1.5-1.30029-2.25-3.05029-2.25-5.25c0-1.3667,0.44141-2.70801,1.3252-4.0249c0.88281-1.31641,2.2915-2.4082,4.2251-3.27539
	c1.93262-0.86621,4.48291-1.2998,7.6499-1.2998c2.6001,0,4.93262,0.3252,7,0.9751c2.06641,0.6499,3.75,1.54199,5.0498,2.6748
	l-3.94971,5.7002c-0.93359-0.73291-2.125-1.3252-3.5752-1.7749c-1.44971-0.4502-2.7749-0.67529-3.9751-0.67529
	c-0.5332,0-0.9668,0.03369-1.2998,0.1001c-0.3335,0.06738-0.5752,0.15869-0.7251,0.2749
	c-0.1499,0.11719-0.2251,0.25879-0.2251,0.42529c0,0.2334,0.1665,0.44971,0.5,0.6499c0.33301,0.19971,0.98291,0.3833,1.9502,0.5498
	l3.5498,0.6001c2.7002,0.43359,4.67529,1.2998,5.92529,2.6001c1.25,1.2998,1.875,2.8999,1.875,4.7998
	c0,1.63379-0.44238,3.14209-1.3252,4.5249c-0.8833,1.38379-2.26709,2.49219-4.1499,3.3252
	C51.28174,140.6958,48.80713,141.11279,45.74072,141.11279z"/>
<path d="M70.34033,107.61279v33h-11.6499v-33H70.34033z M85.84033,119.7627v8.55029h-21.5498v-8.55029H85.84033z
	 M91.04053,107.61279v33h-11.6499v-33H91.04053z"/>
<path d="M107.79004,107.11279c3.5,0,6.5,0.66699,9,2c2.5,1.3335,4.4165,3.26709,5.75,5.7998c1.33301,2.53369,2,5.6001,2,9.2002
	s-0.66699,6.66699-2,9.2002c-1.3335,2.5332-3.25,4.4668-5.75,5.7998c-2.5,1.3335-5.5,2-9,2c-3.46729,0-6.4585-0.6665-8.9751-2
	c-2.51709-1.33301-4.44971-3.2666-5.7998-5.7998s-2.0249-5.6001-2.0249-9.2002s0.6748-6.6665,2.0249-9.2002
	c1.3501-2.53271,3.28271-4.46631,5.7998-5.7998C101.33154,107.77979,104.32275,107.11279,107.79004,107.11279z M107.79004,115.86279
	c-1.13379,0-2.05859,0.29199-2.7749,0.875c-0.71729,0.5835-1.25,1.4751-1.6001,2.6748c-0.3501,1.2002-0.5249,2.76758-0.5249,4.7002
	c0,1.8999,0.1748,3.4585,0.5249,4.6748c0.3501,1.21729,0.88281,2.11719,1.6001,2.7002c0.71631,0.5835,1.64111,0.875,2.7749,0.875
	c1.13281,0,2.05762-0.2915,2.7749-0.875c0.71631-0.58301,1.2417-1.48291,1.5752-2.7002c0.33252-1.21631,0.5-2.7749,0.5-4.6748
	c0-1.93262-0.16748-3.5-0.5-4.7002c-0.3335-1.19971-0.85889-2.09131-1.5752-2.6748
	C109.84766,116.15479,108.92285,115.86279,107.79004,115.86279z"/>
<path d="M124.48926,145.15402v-33h27.40039v8.5498h-15.75049v4.1001h12.69971v7.8999h-12.69971v3.90039
	c4.09889-0.97824,10.31763-1.78896,16.92535,0.4854c2.46152,0.84724,3.31345,1.55002,5.6129,2.70969
	c12.9118,6.51175,28.03227,5.52599,31.54839,5.2258c7.11079-0.60707,11.54431-2.2209,12.7742-0.19354
	c0.96892,1.59717-0.44304,4.80708-2.51613,6.77419c-5.94223,5.63843-18.9964,1.90544-39.65608-3.95166
	c-7.63235-2.1638-10.7198-3.4247-15.69876-2.62898c-4.60138,0.73537-8.01187,2.77875-13.74193,2.12903
	C128.38533,146.81377,126.008,145.8773,124.48926,145.15402z"/>
<path d="M170.10233,138.77324c-2.43359,0-4.77539-0.3335-7.02539-1s-4.20801-1.6665-5.875-3l4.10059-5.9502
	c0.89941,0.80029,2.08203,1.50879,3.5498,2.125c1.46582,0.61719,2.93262,0.92529,4.39941,0.92529
	c0.56641,0,1.0752-0.06641,1.52539-0.2002c0.4502-0.13281,0.6748-0.36621,0.6748-0.69971c0-0.2666-0.125-0.4668-0.375-0.6001
	c-0.25-0.13281-0.79199-0.2666-1.625-0.3999l-1.7998-0.3501c-3.63379-0.7002-6.2002-1.7002-7.7002-3
	c-1.5-1.30029-2.25-3.05029-2.25-5.25c0-1.3667,0.44141-2.70801,1.3252-4.0249c0.88281-1.31641,2.29102-2.4082,4.22461-3.27539
	c1.93359-0.86621,4.4834-1.2998,7.65039-1.2998c2.59961,0,4.93262,0.3252,7,0.9751c2.06641,0.6499,3.75,1.54199,5.0498,2.6748
	l-3.9502,5.7002c-0.93359-0.73291-2.125-1.3252-3.57422-1.7749c-1.4502-0.4502-2.77539-0.67529-3.97559-0.67529
	c-0.5332,0-0.9668,0.03369-1.2998,0.1001c-0.33398,0.06738-0.5752,0.15869-0.72461,0.2749
	c-0.15039,0.11719-0.22559,0.25879-0.22559,0.42529c0,0.2334,0.16699,0.44971,0.5,0.6499
	c0.33301,0.19971,0.9834,0.3833,1.9502,0.5498l3.5498,0.6001c2.7002,0.43359,4.6748,1.2998,5.9248,2.6001
	c1.25,1.2998,1.875,2.8999,1.875,4.7998c0,1.63379-0.44141,3.14209-1.32422,4.5249c-0.88379,1.38379-2.26758,2.49219-4.15039,3.3252
	C175.64334,138.35625,173.16873,138.77324,170.10233,138.77324z"/>
<path d="M182.50174,141.53784v-35h11.5v15.1001c0.66602-1.80029,1.65723-3.18311,2.97461-4.1499
	c1.31641-0.9668,2.9248-1.4502,4.8252-1.4502c1.66602,0,3.08301,0.3252,4.25,0.9751c1.16602,0.6499,2.05762,1.6001,2.6748,2.8501
	c0.61621,1.25,0.9248,2.7749,0.9248,4.57471v17.1001h-11.5v-14.1001c0-1.13281-0.1416-1.90771-0.4248-2.32471
	c-0.2832-0.4165-0.72461-0.625-1.3252-0.625c-0.5332,0-0.9834,0.14209-1.34961,0.4248
	c-0.36719,0.28369-0.63379,0.71729-0.7998,1.2998c-0.16699,0.58398-0.25,1.3252-0.25,2.2251v13.1001H182.50174z"/>
<path d="M223.50174,112.77324c2.7998,0,5.24121,0.50879,7.3252,1.5249c2.08203,1.01709,3.70703,2.49219,4.875,4.42529
	c1.16602,1.93359,1.75,4.2832,1.75,7.0498c0,2.7334-0.58398,5.0752-1.75,7.0249c-1.16797,1.9502-2.79297,3.43359-4.875,4.4502
	c-2.08398,1.01709-4.52539,1.5249-7.3252,1.5249c-2.76758,0-5.2002-0.50781-7.2998-1.5249
	c-2.10059-1.0166-3.73438-2.5-4.90039-4.4502c-1.16699-1.94971-1.75-4.2915-1.75-7.0249c0-2.7666,0.58301-5.11621,1.75-7.0498
	c1.16602-1.93311,2.7998-3.4082,4.90039-4.42529C218.30154,113.28203,220.73416,112.77324,223.50174,112.77324z
	 M223.50174,120.52324c-0.5,0-0.93359,0.14209-1.2998,0.4248c-0.36719,0.28369-0.64258,0.80859-0.8252,1.5752
	c-0.18359,0.76709-0.27539,1.8501-0.27539,3.25s0.0918,2.4751,0.27539,3.2251c0.18262,0.75,0.45801,1.2749,0.8252,1.57471
	c0.36621,0.30029,0.7998,0.4502,1.2998,0.4502c0.53223,0,0.97461-0.1499,1.3252-0.4502
	c0.34961-0.2998,0.61621-0.82471,0.7998-1.57471c0.18262-0.75,0.27441-1.8252,0.27441-3.2251s-0.0918-2.48291-0.27441-3.25
	c-0.18359-0.7666-0.4502-1.2915-0.7998-1.5752C224.47635,120.66533,224.03397,120.52324,223.50174,120.52324z"/>
<path d="M237.40115,148.77373v-35.50049h10.4502l0.5498,11l-1.2998-1.2998c0.09961-1.9668,0.51562-3.7168,1.25-5.25
	c0.73242-1.5332,1.75-2.7417,3.0498-3.625c1.2998-0.88281,2.83301-1.3252,4.59961-1.3252c2.06641,0,3.80762,0.50879,5.22559,1.5249
	c1.41602,1.01709,2.49121,2.4751,3.22461,4.375c0.73242,1.8999,1.09961,4.21729,1.09961,6.9502c0,2.76709-0.375,5.1333-1.125,7.1001
	s-1.8418,3.4668-3.27441,4.5c-1.43359,1.0332-3.16699,1.5498-5.2002,1.5498c-2.43359,0-4.2998-0.7915-5.59961-2.375
	c-1.30078-1.58301-2.11719-3.5752-2.4502-5.9751l1-1.5v19.85059c-0.01604,0.61385-0.32184,1.75659-0.32184,1.75659L246.5,151.49463
	l-6.28835-0.03479l-2.41704-0.73875C237.79462,150.72108,237.4193,149.45949,237.40115,148.77373z M251.35135,130.67314
	c0.7998,0,1.43262-0.32471,1.89941-0.9751c0.4668-0.6499,0.7002-1.95752,0.7002-3.9248c0-1.96631-0.2334-3.28271-0.7002-3.9502
	c-0.4668-0.66602-1.09961-1-1.89941-1c-0.5,0-0.93359,0.17529-1.30078,0.52539c-0.36719,0.34961-0.64941,0.8833-0.84961,1.59961
	c-0.2002,0.71729-0.2998,1.65869-0.2998,2.8252c0,1.06738,0.08301,1.96729,0.25,2.7002c0.16602,0.7334,0.43262,1.2832,0.7998,1.6499
	C250.31717,130.49052,250.78397,130.67314,251.35135,130.67314z M245.47691,157.68327h-4.29254
	c-0.38242,0-0.69244-0.31001-0.69244-0.69244v-6.74414c0-0.38243,0.31003-0.69244,0.69244-0.69244h4.29254
	c0.38243,0,0.69244,0.31001,0.69244,0.69244v6.74414C246.16936,157.37326,245.85934,157.68327,245.47691,157.68327z"/>
<path d="M210.1563,147.83337l-8.395,1.35301c-0.65321,0.14427-1.29971-0.26831-1.44398-0.92152l-0.41217-1.86615
	c-0.14427-0.65321,0.26831-1.2997,0.92152-1.44397l8.395-1.35301c0.65321-0.14427,1.29971,0.2683,1.44398,0.92152l0.41217,1.86613
	C211.22209,147.0426,210.80951,147.6891,210.1563,147.83337z"/>
</svg>
