<?xml version="1.0" encoding="utf-8"?>
<!-- Generator: Adobe Illustrator 26.0.1, SVG Export Plug-In . SVG Version: 6.00 Build 0)  -->
<svg version="1.1" id="Layer_1" xmlns="http://www.w3.org/2000/svg" xmlns:xlink="http://www.w3.org/1999/xlink" x="0px" y="0px"
	 viewBox="0 0 232.7 51.1" style="enable-background:new 0 0 232.7 51.1;" xml:space="preserve">
<path d="M23.9,20.7c1.2,1.3,1.9,3,1.9,4.8c0,1.6-0.5,3.2-1.3,4.5c-1,1.5-2.5,2.7-4.1,3.3c-2.4,0.9-4.9,1.4-7.4,1.2
	c-2.4,0-4.7-0.3-7-1c-2.1-0.6-4.1-1.6-5.9-3l4.1-6c1.1,0.9,2.3,1.6,3.6,2.1c1.4,0.6,2.9,0.9,4.4,0.9c0.5,0,1-0.1,1.5-0.2
	c0.5-0.1,0.7-0.4,0.7-0.7c0-0.3-0.1-0.5-0.4-0.6c-0.5-0.2-1.1-0.3-1.6-0.4l-1.8-0.4c-3.6-0.7-6.2-1.7-7.7-3
	c-1.5-1.3-2.3-3.2-2.2-5.2c0-1.4,0.5-2.8,1.3-4c1.1-1.5,2.5-2.6,4.2-3.3c2.4-0.9,5-1.4,7.7-1.3c2.4,0,4.7,0.3,7,1
	c1.8,0.5,3.6,1.4,5,2.7l-4,5.7c-1.1-0.8-2.3-1.4-3.6-1.8c-1.3-0.4-2.6-0.7-4-0.7c-0.4,0-0.9,0-1.3,0.1c-0.3,0-0.5,0.1-0.7,0.3
	c-0.1,0.1-0.2,0.3-0.2,0.4c0,0.2,0.2,0.5,0.5,0.6c0.6,0.3,1.3,0.5,2,0.5l3.5,0.6C20.2,18.3,22.3,19.2,23.9,20.7z"/>
<path d="M178.2,39.9l-0.4-1.9c-0.2-0.7-0.8-1.1-1.5-0.9l-6.4,1c-1.4-1.7-5.8-0.2-12.6,0.4c-3.5,0.3-18.6,1.3-31.5-5.2
	c-1.8-1.1-3.7-2-5.6-2.7c-5.5-1.8-11.3-1.9-16.9-0.5v-3.9H116v-7.9h-12.7v-4.1H119V5.6H91.7v10.5c-0.2-2.7-0.8-5.3-2-7.8
	c-1.3-2.5-3.3-4.5-5.8-5.8c-2.8-1.4-5.9-2.1-9-2c-3.1-0.1-6.2,0.6-9,2c-2.5,1.3-4.5,3.3-5.8,5.8c-1.1,2.5-1.8,5.1-2,7.7v-15H46.5
	v12.2h-9V1.1H25.8v33h11.7V21.8h9v12.3h11.7v-15c0.2,2.6,0.8,5.2,2,7.7c1.3,2.5,3.3,4.5,5.8,5.8c5.7,2.7,12.3,2.7,18,0
	c2.5-1.3,4.5-3.3,5.8-5.8c1.1-2.5,1.8-5.1,2-7.8v19.6c2.2,1,4.5,1.7,6.9,2c5.7,0.7,9.1-1.4,13.7-2.1c5-0.8,8.1,0.5,15.7,2.6
	c20.7,5.9,33.7,9.6,39.7,4c0.8-0.7,1.4-1.6,1.9-2.5l7.8-1.2C178,41.2,178.4,40.5,178.2,39.9z M79.3,22.2c-0.2,1-0.8,2-1.6,2.7
	c-1.7,1.2-3.9,1.2-5.5,0c-0.8-0.7-1.3-1.7-1.6-2.7c-0.7-3.1-0.7-6.3,0-9.4c0.2-1,0.8-2,1.6-2.7C73,9.6,74,9.3,75,9.3
	c1,0,2,0.3,2.8,0.9c0.8,0.7,1.4,1.6,1.6,2.7C80,16,80,19.2,79.3,22.2z"/>
<path d="M231.6,12.1c-0.6-1.8-1.7-3.3-3.2-4.4c-1.5-1-3.4-1.6-5.2-1.5c-1.6,0-3.2,0.4-4.6,1.3c-1.3,0.9-2.4,2.2-3,3.6
	c-0.1,0.2-0.2,0.4-0.2,0.6l-0.2-5h-10.5v11.4c-0.2-2-0.7-4-1.7-5.9c-1.1-1.9-2.8-3.5-4.9-4.4c-2.3-1.1-4.8-1.6-7.3-1.5
	c-2.5-0.1-5,0.5-7.3,1.5c-2,1-3.7,2.5-4.9,4.4c-0.9,1.7-1.4,3.4-1.6,5.2c0-1.4-0.3-2.8-0.9-4.1c-0.6-1.2-1.5-2.2-2.7-2.8
	c-1.3-0.7-2.8-1-4.2-1c-1.7,0-3.4,0.5-4.8,1.5c-1.4,1.1-2.4,2.5-3,4.2V0h-11.5v9.5c-1.4-1.1-2.9-1.8-4.6-2.3c-2.3-0.7-4.6-1-7-1
	c-2.6-0.1-5.2,0.3-7.7,1.3c-1.7,0.7-3.1,1.8-4.2,3.3c-0.8,1.2-1.3,2.6-1.3,4c-0.1,2,0.7,3.9,2.2,5.2c1.5,1.3,4.1,2.3,7.7,3l1.8,0.3
	c0.6,0.1,1.1,0.2,1.6,0.4c0.2,0.1,0.4,0.3,0.4,0.6c0,0.3-0.2,0.6-0.7,0.7c-0.5,0.1-1,0.2-1.5,0.2c-1.5,0-3-0.3-4.4-0.9
	c-1.3-0.5-2.5-1.2-3.5-2.1l-4.1,5.9c1.8,1.4,3.7,2.4,5.9,3c2.3,0.7,4.6,1,7,1c2.5,0.1,5.1-0.3,7.4-1.2c1.7-0.7,3.1-1.8,4.2-3.3
	c0.3-0.5,0.6-1.1,0.8-1.7v9h11.5V21.9c0-0.8,0.1-1.5,0.2-2.2c0.1-0.5,0.4-1,0.8-1.3c0.4-0.3,0.9-0.4,1.3-0.4c0.5,0,1,0.2,1.3,0.6
	c0.3,0.7,0.5,1.5,0.4,2.3V35h11.5V20.9c0.2,1.8,0.8,3.7,1.7,5.3c1.1,1.9,2.9,3.5,4.9,4.5c4.7,2,10,2,14.6,0c2-1,3.7-2.5,4.9-4.5
	c1-1.8,1.5-3.9,1.7-5.9v21.9c0.1,0.7,0.2,1.3,0.4,1.9l2.4,0.7h0.3v5.5c0,0.4,0.3,0.7,0.7,0.7h4.3c0.4,0,0.7-0.3,0.7-0.7V45h0.3
	l2.1-1c0.2-0.6,0.3-1.2,0.3-1.8V27.5c0.4,0.8,0.9,1.6,1.5,2.4c1.4,1.6,3.5,2.5,5.6,2.4c1.9,0.1,3.7-0.5,5.2-1.5
	c1.5-1.1,2.7-2.7,3.3-4.5c0.8-2.3,1.2-4.7,1.1-7.1C232.8,16.7,232.4,14.4,231.6,12.1z M149.7,20.4c-0.3-0.8-0.8-1.5-1.4-2.1
	c-1.6-1.5-3.7-2.4-5.9-2.6l-3.5-0.6c-0.7-0.1-1.3-0.3-2-0.5c-0.3-0.2-0.5-0.4-0.5-0.7c0-0.2,0.1-0.3,0.2-0.4
	c0.2-0.1,0.5-0.2,0.7-0.3c0.4-0.1,0.9-0.1,1.3-0.1c1.4,0,2.7,0.2,4,0.7c1.3,0.4,2.5,1,3.6,1.8l3.5-5V20.4z M192.8,22.5
	c-0.1,0.6-0.4,1.1-0.8,1.6c-0.4,0.3-0.8,0.5-1.3,0.4c-0.5,0-0.9-0.1-1.3-0.4c-0.4-0.4-0.7-1-0.8-1.6c-0.2-1.1-0.3-2.1-0.3-3.2
	c0-1.1,0.1-2.2,0.3-3.2c0.1-0.6,0.4-1.2,0.8-1.6c0.4-0.3,0.8-0.4,1.3-0.4c0.5,0,1,0.1,1.3,0.4c0.4,0.4,0.7,1,0.8,1.6
	c0.2,1.1,0.3,2.2,0.3,3.2C193.1,20.3,193,21.4,192.8,22.5z M221.1,19.2c0,2-0.2,3.3-0.7,3.9c-0.4,0.6-1.1,1-1.9,1
	c-0.5,0-1-0.2-1.4-0.5c-0.4-0.5-0.7-1-0.8-1.7c-0.2-0.9-0.3-1.8-0.2-2.7c0-1,0.1-1.9,0.3-2.8c0.1-0.6,0.4-1.2,0.9-1.6
	c0.3-0.3,0.8-0.5,1.3-0.5c0.8,0,1.5,0.4,1.9,1C221,16.5,221.2,17.9,221.1,19.2z"/>
</svg>
